<svg
  xmlns="http://www.w3.org/2000/svg"
  width="24"
  height="24"
  viewBox="0 0 24 24"
  fill="none"
  stroke="currentColor"
  stroke-width="2"
  stroke-linecap="round"
  stroke-linejoin="round"
>
  <path d="M17.7 4.4c-2.3 1.7-4.8 5.2-5.7 7.1-.9-1.9-3.4-5.4-5.7-7.1C4.7 3.2 2 2.2 2 5.3c0 .6.4 5.1.6 5.9.7 2.6 3.3 3.2 5.6 2.8-4 .7-5.1 3-2.9 5.3 4.2 4.3 6.1-1.1 6.5-2.5.1-.3.1-.4.1-.3 0-.1 0 0 .1.3.5 1.4 2.3 6.8 6.5 2.5 2.2-2.3 1.2-4.6-2.9-5.3 2.3.4 4.9-.3 5.6-2.8.2-.7.6-5.3.6-5.9.2-3.1-2.4-2.1-4.1-.9" />
</svg>
