<svg
  xmlns="http://www.w3.org/2000/svg"
  width="24"
  height="24"
  viewBox="0 0 24 24"
  fill="none"
  stroke="currentColor"
  stroke-width="2"
  stroke-linecap="round"
  stroke-linejoin="round"
>
  <path d="M18.7 5.2a18.95 18.95 0 0 0-3.6-.9l-.8 2a8.5 8.5 0 0 0-4.6-.1l-.8-2c-1.3.2-2.5.5-3.6 1C3.3 8.1 2 12.3 2 17v.1c1.4 1 3.2 1.8 5.3 2.3l1-2a11.05 11.05 0 0 0 7.4.1l1 2c2.1-.5 3.9-1.3 5.3-2.3 0-4.9-1.3-9.1-3.3-12" />
  <circle cx="9" cy="12" r="1" />
  <circle cx="15" cy="12" r="1" />
</svg>
