<svg
  xmlns="http://www.w3.org/2000/svg"
  width="24"
  height="24"
  viewBox="0 0 24 24"
  fill="none"
  stroke="currentColor"
  stroke-width="2"
  stroke-linecap="round"
  stroke-linejoin="round"
>
  <path d="M16 21c.7 0 1.4-.4 1.7-1l4-7a1.82 1.82 0 0 0 0-2l-4-7c-.4-.6-1-1-1.7-1H8c-.7 0-1.4.4-1.7 1l-4 7a1.82 1.82 0 0 0 0 2l4 7c.3.6 1 1 1.7 1Z" />
  <path d="M16.5 10c0-.4-.2-.7-.5-.9l-3.5-2a.9.9 0 0 0-1 0L8 9.1c-.3.2-.5.5-.5.9v4c0 .4.2.7.5.9l3.5 2a.9.9 0 0 0 1 0l3.5-2c.3-.2.5-.5.5-.9Z" />
</svg>
